<?xml version="1.0" encoding="UTF-8" standalone="no"?>
<!-- Created with Inkscape (http://www.inkscape.org/) -->

<svg
   xmlns:dc="http://purl.org/dc/elements/1.1/"
   xmlns:cc="http://creativecommons.org/ns#"
   xmlns:rdf="http://www.w3.org/1999/02/22-rdf-syntax-ns#"
   xmlns:svg="http://www.w3.org/2000/svg"
   xmlns="http://www.w3.org/2000/svg"
   xmlns:sodipodi="http://sodipodi.sourceforge.net/DTD/sodipodi-0.dtd"
   xmlns:inkscape="http://www.inkscape.org/namespaces/inkscape"
   width="760mm"
   height="210mm"
   viewBox="0 0 2692.9133 744.09448"
   id="svg2"
   version="1.1"
   inkscape:version="0.91 r13725"
   sodipodi:docname="logo.svg"
   inkscape:export-filename="/home/aru/code/preflyt/res/logo.png"
   inkscape:export-xdpi="23.394737"
   inkscape:export-ydpi="23.394737">
  <defs
     id="defs4" />
  <sodipodi:namedview
     id="base"
     pagecolor="#ffffff"
     bordercolor="#666666"
     borderopacity="1.0"
     inkscape:pageopacity="0.0"
     inkscape:pageshadow="2"
     inkscape:zoom="0.165"
     inkscape:cx="1575.3387"
     inkscape:cy="274.95023"
     inkscape:document-units="px"
     inkscape:current-layer="layer2"
     showgrid="true"
     width="500mm"
     inkscape:showpageshadow="false"
     inkscape:window-width="2560"
     inkscape:window-height="1359"
     inkscape:window-x="0"
     inkscape:window-y="0"
     inkscape:window-maximized="1"
     showguides="true"
     inkscape:guide-bbox="true" />
  <metadata
     id="metadata7">
    <rdf:RDF>
      <cc:Work
         rdf:about="">
        <dc:format>image/svg+xml</dc:format>
        <dc:type
           rdf:resource="http://purl.org/dc/dcmitype/StillImage" />
        <dc:title></dc:title>
      </cc:Work>
    </rdf:RDF>
  </metadata>
  <g
     inkscape:label="Layer 1"
     inkscape:groupmode="layer"
     id="layer1"
     transform="translate(0,-308.26772)" />
  <g
     inkscape:groupmode="layer"
     id="layer2"
     inkscape:label="Text">
    <flowRoot
       xml:space="preserve"
       id="flowRoot3347"
       style="font-style:normal;font-weight:normal;font-size:40px;line-height:125%;font-family:sans-serif;letter-spacing:0px;word-spacing:0px;fill:#000000;fill-opacity:1;stroke:none;stroke-width:1px;stroke-linecap:butt;stroke-linejoin:miter;stroke-opacity:1"><flowRegion
         id="flowRegion3349"><rect
           id="rect3351"
           width="2311.4285"
           height="660"
           x="851.42859"
           y="44.094482" /></flowRegion><flowPara
         id="flowPara3353" /></flowRoot>    <flowRoot
       xml:space="preserve"
       id="flowRoot3355"
       style="font-style:normal;font-variant:normal;font-weight:normal;font-stretch:normal;font-size:180px;line-height:125%;font-family:Maya;-inkscape-font-specification:Maya;letter-spacing:0px;word-spacing:0px;fill:#000000;fill-opacity:1;stroke:none;stroke-width:1px;stroke-linecap:butt;stroke-linejoin:miter;stroke-opacity:1"><flowRegion
         id="flowRegion3357"><rect
           id="rect3359"
           width="2571.4285"
           height="691.42859"
           x="597.14288"
           y="29.808767"
           style="font-style:normal;font-variant:normal;font-weight:normal;font-stretch:normal;font-size:180px;font-family:Maya;-inkscape-font-specification:Maya" /></flowRegion><flowPara
         id="flowPara3361" /></flowRoot>    <flowRoot
       xml:space="preserve"
       id="flowRoot3363"
       style="font-style:normal;font-weight:normal;font-size:180px;line-height:125%;font-family:sans-serif;letter-spacing:0px;word-spacing:0px;fill:#000000;fill-opacity:1;stroke:none;stroke-width:1px;stroke-linecap:butt;stroke-linejoin:miter;stroke-opacity:1"
       transform="matrix(1.4443108,0,0,1.4443108,-139.21265,-156.94706)"><flowRegion
         id="flowRegion3365"><rect
           id="rect3367"
           width="2408.5715"
           height="691.42859"
           x="762.85712"
           y="26.951626" /></flowRegion><flowPara
         id="flowPara3369"
         style="font-style:normal;font-variant:normal;font-weight:normal;font-stretch:normal;font-size:500px;font-family:Maya;-inkscape-font-specification:Maya">Preflyt</flowPara></flowRoot>    <path
       style="fill:#000000"
       d="m 425.59416,729.55523 c -6.22185,-6.22189 -12.62427,-11.31252 -14.22754,-11.31252 -7.28163,0 -141.3258,-62.80132 -146.35639,-68.56972 -5.02447,-5.76143 -5.65627,-14.54884 -5.65627,-78.67094 0,-91.04858 -2.5843,-86.38226 52.42738,-94.66419 20.83549,-3.13679 38.92123,-6.74175 40.19057,-8.01105 1.26929,-1.2693 -0.26861,-24.9727 -3.41756,-52.67422 l -5.72533,-50.3664 9.84337,-15.83465 9.84336,-15.83466 -49.18892,0 c -39.89175,0 -65.98285,-2.38843 -138.04093,-12.63643 -48.86858,-6.95003 -96.487917,-13.63164 -105.820737,-14.84798 l -16.968787,-2.21155 0,-35.03991 c 0,-37.81328 2.791905,-50.14231 11.935426,-52.70659 5.754804,-1.6139 15.046125,-2.24821 126.798598,-8.65624 30.97279,-1.77603 56.83384,-3.74881 57.46901,-4.38394 0.63517,-0.63515 -5.94627,-4.20965 -14.6254,-7.9433 -15.54313,-6.68646 -17.1111,-6.72952 -104.3352,-2.86446 l -88.554958,3.92404 -0.878007,60.23486 -0.878007,60.23486 8.059871,2.02289 c 4.432904,1.1126 16.124755,1.07501 25.981855,-0.0835 13.891705,-1.63268 19.181699,-0.97296 23.523585,2.93373 3.846491,3.46096 28.423601,8.15947 78.441771,14.99611 40.06209,5.47578 73.8785,9.95601 75.14746,9.95601 3.28598,0 2.76968,26.58689 -0.62022,31.93922 -2.36973,3.74156 -14.28835,2.81968 -73.48191,-5.68383 -48.81842,-7.01306 -75.91283,-9.50091 -87.671757,-8.05006 -13.000222,1.60397 -18.34214,0.9241 -22.625045,-2.87941 -3.08368,-2.73851 -15.693045,-6.5254 -28.020775,-8.41528 C 1.4987929,347.83545 2.7211925,351.18956 3.6627305,258.79078 4.1018123,215.701 5.8483115,177.85366 7.543821,174.68556 c 1.6955093,-3.1681 6.096198,-7.37295 9.779296,-9.34407 3.879999,-2.07651 49.375945,-5.53261 108.170793,-8.21721 l 101.4743,-4.63332 19.33283,9.7592 c 10.63311,5.36757 23.80386,9.75921 29.2684,9.75921 6.54753,0 12.91642,3.01939 18.67704,8.85449 11.94727,12.10168 33.93433,23.467 45.39864,23.467 l 9.47994,0 13.53398,-70.29925 c 17.50683,-90.935709 22.70613,-100.504348 65.28948,-120.156937 11.8425,-5.4653991 23.60953,-9.9370894 26.14896,-9.9370894 8.44468,0 44.30084,19.7554364 54.6624,30.1170124 15.42089,15.420869 20.47173,30.568015 32.25983,96.744864 5.93735,33.33153 11.66353,60.60281 12.72497,60.60281 1.06135,0 8.70674,-8.72681 16.98972,-19.3929 l 15.05993,-19.3929 31.51689,0.13523 c 17.33422,0.0742 84.50278,2.7773 149.26348,6.00665 l 117.74664,5.87155 7.84181,9.11663 7.84181,9.11665 -1.20426,78.57287 c -1.41297,92.18456 -0.83998,90.61944 -34.87919,95.27462 -10.81411,1.4789 -23.26208,5.04776 -27.66215,7.93082 -5.60651,3.67353 -11.63351,4.64325 -20.14412,3.24107 -18.88085,-3.11076 -28.98129,-2.35422 -105.21158,7.88008 -48.75662,6.54586 -84.83456,9.56874 -114.20187,9.56874 l -42.92927,0 -1.66696,10.50449 c -7.01919,44.2335 -9.07605,71.06804 -5.6114,73.20933 2.04225,1.26219 20.08497,4.88504 40.0949,8.05082 54.01266,8.54537 50.92642,2.92921 50.92642,92.67323 0,65.18057 -0.63464,74.17975 -5.65626,80.20761 -3.11095,3.73429 -39.10902,21.52656 -79.99571,39.53829 -40.88669,18.01177 -79.11707,36.93455 -84.95638,42.05069 -14.77776,12.9475 -26.94711,12.35526 -41.31297,-2.01051 z m 1.65653,-23.914 c 3.62778,-6.7786 2.55495,-7.41257 -56.38755,-33.32373 -15.99914,-7.0332 -38.54338,-17.17944 -50.09834,-22.54719 -11.55492,-5.36775 -24.28151,-11.02941 -28.28129,-12.58151 -7.18582,-2.78842 -7.27177,-3.5441 -7.22287,-63.50479 0.027,-33.37555 1.14142,-62.39976 2.47598,-64.49825 1.33455,-2.09847 20.16432,-6.74431 41.84387,-10.32408 40.58625,-6.70167 52.56161,-10.68 52.64086,-17.48764 0.0256,-2.15957 -2.39875,-28.65244 -5.38647,-58.87304 l -5.43215,-54.94654 15.75017,-22.62505 c 8.66254,-12.44378 16.54073,-23.35228 17.50697,-24.24113 0.96629,-0.88884 7.83233,-10.42285 15.25787,-21.18671 13.05961,-18.93094 13.29032,-19.70221 7.05685,-23.59506 -8.01925,-5.0081 -9.04047,-3.81326 -56.30322,65.87662 l -17.59424,25.94309 4.827,38.6999 c 5.46441,43.81025 6.1831,68.21763 2.08338,70.75137 -1.53738,0.95018 -20.78645,4.61461 -42.77583,8.14327 -28.83345,4.62691 -41.12105,7.97534 -44.07092,12.00955 -5.78139,7.90648 -5.82607,136.54899 -0.0502,144.28291 3.36362,4.50381 141.36646,69.53932 148.56522,70.01312 1.27072,0.0838 3.78838,-2.60966 5.59489,-5.98511 z m 70.47433,-3.70472 c 27.11108,-15.02867 57.67927,-26.56866 84.11345,-37.93703 20.04152,-8.60593 38.54353,-18.65142 41.11541,-22.32337 6.55838,-9.36341 7.50025,-138.83922 1.05461,-144.98382 -2.34838,-2.23875 -22.45066,-7.23084 -44.6717,-11.09349 -22.22104,-3.86268 -41.73815,-8.32227 -43.37134,-9.91019 -2.76346,-2.68685 6.27906,-91.71719 9.91252,-97.59623 0.83533,-1.35166 22.15914,-2.42228 47.38621,-2.37918 33.30016,0.0569 67.63785,-2.75829 125.32439,-10.27479 l 79.45706,-10.35323 0,-8.92952 c 0,-7.80911 -1.04773,-8.75344 -8.34976,-7.526 -4.59236,0.77194 -42.36307,5.85239 -83.93497,11.2899 -58.34841,7.6318 -85.79038,9.7215 -120.33559,9.16341 -38.2327,-0.61768 -45.63382,0.0765 -50.81638,4.76672 -5.87313,5.31512 -8.13836,18.292 -15.31592,87.74066 -0.91863,8.88841 -2.46744,18.83281 -3.44189,22.09862 -1.07643,3.60757 0.84714,8.37768 4.90133,12.15477 6.56076,6.11226 15.14678,8.40424 60.20041,16.07002 12.4438,2.11729 24.44315,5.2926 26.66527,7.05627 4.48943,3.56315 5.9253,117.29914 1.56655,124.08601 -2.20869,3.43916 -51.50135,26.69626 -84.79444,40.00745 -7.99958,3.19837 -24.34455,10.43751 -36.32222,16.08695 -19.66004,9.27298 -21.44302,10.89684 -18.337,16.70051 1.89231,3.53587 5.14712,5.71726 7.23288,4.84756 2.08579,-0.86971 11.42827,-4.81257 20.76112,-8.762 z m -8.88841,-24.80352 c 11.55491,-5.32358 41.73511,-18.77046 67.0671,-29.88189 l 46.05815,-20.2027 0,-55.62721 0,-55.62718 -41.20994,-7.0606 c -35.32747,-6.05275 -42.24795,-8.23862 -48.48223,-15.31328 -8.73738,-9.9152 -8.7565,-5.90338 0.35902,-75.43041 9.5074,-72.51646 4.93349,-68.22947 72.72241,-68.16113 58.27001,0.059 201.61857,-16.3526 218.96811,-25.0687 6.74356,-3.38781 14.56009,-4.44049 23.78517,-3.20314 7.55736,1.01365 18.49366,1.0717 24.30294,0.12902 l 10.56225,-1.71402 2.35099,-58.13013 c 1.29305,-31.97157 1.10864,-59.27755 -0.40986,-60.67999 -3.81902,-3.52726 -34.83726,-5.58309 -153.99724,-10.20675 l -102.75415,-3.98705 -8.27326,8.27322 -8.27316,8.27322 33.45574,1.99586 c 169.75333,10.12692 208.93611,12.89882 215.04151,15.21267 8.74639,3.31472 11.52726,19.22612 10.1134,57.86658 l -1.00225,27.39228 -12.96043,2.20405 c -7.12824,1.21223 -52.94396,7.79377 -101.81272,14.62568 -82.50578,11.53433 -94.2776,12.42159 -164.80779,12.42159 l -75.95555,0 -2.81791,22.62505 c -1.5499,12.44378 -7.42915,54.90515 -13.06502,94.35858 -10.19267,71.35263 -10.21202,71.74188 -3.64638,73.31617 3.63039,0.87048 26.23601,4.75708 50.23473,8.63685 29.13568,4.71028 44.9765,8.74589 47.67421,12.14551 2.37684,2.99525 4.0402,14.5626 4.0402,28.09693 0,13.547 -1.66108,25.08908 -4.0402,28.07316 -2.73718,3.43319 -20.7188,7.8075 -55.75456,13.56316 -45.67144,7.50288 -52.13373,7.92714 -55.30288,3.63058 -6.09345,-8.26112 -7.72408,-5.53528 -7.72408,12.91179 0,15.62204 -0.78354,17.77683 -6.46428,17.77683 -5.78879,0 -6.50346,-2.27973 -6.83923,-21.81701 -0.2061,-11.99937 -1.07463,-18.90808 -1.92984,-15.35272 -0.85516,3.55537 -2.65631,7.63424 -4.00258,9.06417 -2.81222,2.98697 -106.46057,-15.49436 -110.70591,-19.73972 -4.07947,-4.07944 -4.81705,-54.56927 -0.85564,-58.56669 1.83521,-1.85189 25.50811,-6.82426 52.60643,-11.04979 27.09838,-4.22547 50.19193,-8.60491 51.31902,-9.73203 1.52059,-1.52058 -13.6416,-143.72982 -19.52109,-183.09259 -0.39829,-2.66653 -6.37349,3.5837 -13.27818,13.88942 l -12.55408,18.73763 6.03948,56.51225 6.03947,56.51223 -7.90456,7.86343 c -6.31862,6.28578 -14.38919,8.87326 -40.226,12.89671 -17.77682,2.76833 -36.32132,5.84438 -41.2099,6.83569 l -8.88845,1.80235 0,55.85602 0,55.85608 71.69527,32.11637 c 81.48086,36.49994 82.21815,36.60955 122.23375,18.17363 z m -60.12984,-68.51405 c -1.40646,-6.51022 -1.04517,-7.28162 1.64022,-3.50148 2.84476,4.00458 3.4527,3.54957 3.49358,-2.61486 0.0256,-4.10472 1.48729,-6.57445 3.24462,-5.48839 1.83217,1.13236 2.37399,-0.16523 1.27028,-3.04138 -1.32018,-3.44035 -6.63925,-5.14977 -16.9318,-5.4416 -14.82462,-0.42031 -14.86949,-0.45441 -3.69437,-2.80666 8.25784,-1.73823 3.89406,-2.40909 -16.16074,-2.48449 -18.19806,-0.0685 -24.7453,0.77033 -19.39288,2.48449 7.65587,2.45183 7.52852,2.60472 -2.42413,2.90997 -7.57088,0.23194 -10.60921,1.90182 -10.87943,5.97844 -0.35707,5.38693 -0.44534,5.38693 -1.85309,0 -1.17945,-4.51353 -5.03414,-5.65626 -19.07954,-5.65626 -17.16086,0 -17.55061,-0.20246 -15.57334,-8.08038 1.53363,-6.11044 0.76067,-8.08037 -3.17057,-8.08037 -3.89734,0 -5.1986,3.18852 -5.1986,12.73782 0,7.00583 1.67916,13.77566 3.73156,15.04408 2.22714,1.37648 2.85742,0.89189 1.56332,-1.20197 -1.1925,-1.92952 -0.69,-4.42182 1.11666,-5.53838 1.8067,-1.11659 3.28488,0.0618 3.28488,2.61835 0,3.24293 6.59685,5.69311 21.81701,8.10321 37.73779,5.9757 63.63869,10.59723 64.5612,11.51977 0.48941,0.4894 3.03842,0.88985 5.66447,0.88985 3.44469,0 4.27214,-2.32568 2.97069,-8.34976 z m 45.01023,-8.27448 c 2.0939,-0.63748 9.98856,-1.86764 17.54374,-2.7337 11.9042,-1.36457 13.73661,-0.75335 13.73661,4.58213 0,4.29731 -2.19631,6.0881 -7.27233,5.92954 -6.93913,-0.21694 -6.97612,-0.35445 -0.80801,-3.00497 5.48119,-2.35535 4.92414,-2.81235 -3.66326,-3.00496 -7.48493,-0.16807 -10.56391,1.44166 -11.80004,6.16859 -1.69742,6.49096 1.93078,6.70312 26.77578,1.56563 2.66656,-0.55138 8.89491,-1.1138 13.84078,-1.24981 6.16716,-0.16962 9.91105,-2.53227 11.91573,-7.51963 2.23962,-5.57192 2.97102,-5.94977 3.12798,-1.61608 0.12641,3.4892 2.75459,5.65626 6.85991,5.65626 3.66031,0 5.75616,-1.45446 4.65748,-3.23215 -1.09867,-1.77768 -0.45729,-3.23214 1.4253,-3.23214 1.88264,0 3.595,-3.27257 3.80536,-7.27234 0.31315,-5.95719 0.85502,-5.51881 2.99574,2.42411 l 2.61333,9.69645 -0.57161,-9.69645 c -0.49728,-8.43426 -1.93908,-9.8283 -11.07613,-10.70928 -7.9509,-0.76658 -10.50452,0.26181 -10.50452,4.23094 0,2.88409 -1.47818,4.3302 -3.28484,3.21361 -1.8067,-1.11656 -2.63454,-3.08243 -1.83971,-4.3685 0.79482,-1.28611 -2.81758,-2.66316 -8.02765,-3.06017 -7.7275,-0.58879 -9.47282,0.54238 -9.47282,6.13961 0,4.7712 1.47695,6.2947 4.84821,5.00101 2.6665,-1.02322 4.84821,-0.45159 4.84821,1.27029 0,1.72188 -1.54028,3.13072 -3.42287,3.13072 -1.88264,0 -2.67381,1.21205 -1.75827,2.69344 0.91554,1.48143 -0.45308,2.69349 -3.04141,2.69349 -3.17874,0 -4.70601,-3.49654 -4.70601,-10.77387 l 0,-10.77382 -22.29964,0 -22.29955,0 -1.3946,15.35272 c -1.4854,16.35237 1.64282,28.06881 3.40085,12.73769 0.57265,-4.99359 2.75436,-9.60085 4.84826,-10.23836 z m 97.96429,-14.99591 c 1.562,-9.62552 0.88898,-11.19971 -4.97694,-11.64158 -5.45036,-0.41056 -6.4352,0.8787 -5.01208,6.56134 0.97412,3.8898 2.01474,10.32757 2.31237,14.30617 0.74654,9.97757 5.48438,4.2835 7.67665,-9.22593 z M 434.9467,568.35864 c -1.03574,-6.38272 -0.28151,-11.8209 1.81931,-13.11935 2.36522,-1.46181 3.74465,1.97862 4.04703,10.09359 l 0.45863,12.31131 2.31484,-12.9286 2.31484,-12.9286 0.97588,14.54468 c 0.84634,12.61272 1.1491,13.14939 2.27955,4.04018 0.84179,-6.78299 3.08216,-10.50448 6.32383,-10.50448 3.61208,0 4.58695,-2.26654 3.47557,-8.08038 -0.84957,-4.44421 -0.18722,-8.08037 1.47187,-8.08037 1.76491,0 2.10956,7.25873 0.83064,17.49485 l -2.18583,17.49485 45.35141,0.36681 c 44.85081,0.36275 45.36284,0.28572 46.3953,-6.99036 0.75157,-5.29654 3.53348,-7.64365 9.93235,-8.37988 9.55578,-1.09953 12.28305,-10.0532 4.84826,-15.91687 -3.61435,-2.85052 -81.87323,-16.998 -94.02708,-16.998 -2.68818,0 -5.55272,2.54531 -6.36566,5.65626 -4.64359,17.76912 -0.89989,-19.58158 9.24414,-92.22805 6.30971,-45.187 10.78795,-83.82816 9.95162,-85.86924 -0.83628,-2.04115 -1.75021,1.3795 -2.03087,7.60139 -0.28056,6.22189 -1.24315,9.49694 -2.13877,7.2779 -0.98954,-2.45181 -5.01049,-3.38331 -10.2493,-2.37445 -7.26655,1.39937 -7.60536,1.18028 -2.15661,-1.39447 5.97406,-2.82302 5.83931,-3.07187 -1.77772,-3.2818 -4.53307,-0.12515 -10.04789,1.57874 -12.25516,3.78599 -3.19614,3.19613 -4.61641,3.0371 -6.97612,-0.78102 -2.35972,-3.81812 -3.77998,-3.97715 -6.97612,-0.78102 -2.20722,2.20725 -5.54034,3.99091 -7.40695,3.96368 -2.19655,-0.0323 -2.12654,-0.88719 0.1986,-2.42411 2.22045,-1.46779 -0.31514,-4.25972 -6.63969,-7.31089 l -10.23197,-4.9363 -0.64836,9.78452 c -0.50724,7.65495 0.0895,8.72931 2.74183,4.93627 2.45895,-3.51653 2.93009,0.47859 1.71521,14.54467 -1.20939,14.00292 -0.84278,17.14707 1.31905,11.31253 2.12686,-5.7403 2.44632,-2.5661 1.10318,10.96063 -1.1805,11.88826 -0.71908,18.31691 1.22831,17.11333 1.89312,-1.17004 2.61286,3.73207 1.83122,12.47245 -0.70831,7.92009 0.0934,14.40014 1.78185,14.40014 1.68826,0 3.75626,3.59213 4.59553,7.98255 0.83927,4.3904 0.28151,7.21351 -1.23931,6.27355 -1.52087,-0.93993 -2.74292,2.37659 -2.71574,7.37013 0.0384,7.01901 0.75299,7.97907 3.14965,4.23096 2.08442,-3.25979 2.51084,0.97604 1.30155,12.9286 -1.25464,12.40124 -0.81537,16.37345 1.45261,13.13598 2.25413,-3.21778 2.74971,2.23209 1.61622,17.77232 -1.69069,23.17764 -4.33732,32.53133 -4.33732,15.32872 0,-8.32377 -1.08724,-9.6209 -7.27234,-8.67618 -3.99983,0.61093 -25.61795,4.04539 -48.0403,7.63219 -22.42243,3.58673 -42.05774,6.62361 -43.63402,6.74855 -1.57637,0.12463 0.0432,1.47717 3.59823,3.00497 6.46427,2.77781 6.46427,2.77781 0,3.38775 -3.5554,0.33543 -7.55518,0.43766 -8.88841,0.22729 -1.33323,-0.21048 -2.42408,3.98059 -2.42408,9.31363 0,7.96813 1.29628,9.65596 7.27233,9.46927 6.93913,-0.21694 6.97617,-0.35445 0.80806,-3.00496 -6.13524,-2.63638 -6.08889,-2.78938 0.90942,-3.00497 4.2232,-0.13033 8.26553,2.18958 9.46073,5.42908 3.53096,9.57013 7.64961,10.4039 51.6455,10.45499 l 42.62281,0.0494 -1.76909,-10.90163 z m 18.19127,-81.83191 c -0.13726,-51.50123 -2.16092,-88.25912 -5.02219,-91.22967 -0.71338,-0.74068 -1.29713,5.68323 -1.29713,14.27534 0,8.59212 -1.01695,14.60508 -2.25992,13.36215 -3.21473,-3.21472 -1.08924,-32.12139 2.64412,-35.96018 6.72715,-6.91708 8.70309,7.82444 9.05262,67.53655 0.19884,33.94732 1.19624,66.28288 2.2168,71.85677 1.06756,5.83079 0.35973,11.05879 -1.66692,12.31131 -2.48631,1.53664 -3.56502,-13.80361 -3.66738,-52.15229 z m -209.94475,-123.03328 0,-8.90923 -66.34847,-9.00308 c -36.49166,-4.95173 -67.76271,-8.12907 -69.49121,-7.0608 -1.72853,1.06829 -3.14277,4.69954 -3.14277,8.06944 0,7.0443 -1.48523,6.68556 72.72338,17.56551 68.93672,10.10701 66.25907,10.13378 66.25907,-0.66184 z m 199.78037,-12.88089 c -0.7011,-8.45192 -2.70645,-12.41647 -6.65942,-13.16561 -4.26626,-0.8085 -5.71209,1.17069 -5.88346,8.05351 -0.19936,8.01266 -0.56587,8.33714 -3.00494,2.66109 -4.99886,-11.63289 -3.57973,-14.53402 7.27233,-14.86685 9.95265,-0.30511 10.08001,-0.45814 2.42408,-2.90997 -7.25805,-2.32443 -6.86631,-2.62057 3.84948,-2.90997 6.56137,-0.17712 12.82871,1.13229 13.92738,2.90997 3.49198,5.65014 20.38935,3.78938 22.01311,-2.42411 0.92024,-3.52146 1.61963,-2.33984 1.85309,3.13074 0.24461,5.73094 1.81884,8.23285 4.52662,7.19378 3.0795,-1.1817 3.62521,-6.79007 2.11302,-21.71557 -1.12131,-11.06732 -1.53511,-20.72845 -0.91958,-21.46913 0.61553,-0.74071 1.11917,0.35013 1.11917,2.42411 0,2.07395 2.1817,3.77083 4.84821,3.77083 2.66651,0 4.84821,-2.1817 4.84821,-4.84822 0,-3.23215 -3.23214,-4.84823 -9.69642,-4.84823 -10.8949,0 -13.16834,-6.16158 -3.23214,-8.75992 5.81578,-1.52087 6.46428,-4.40871 6.46428,-28.78677 0,-21.0059 -1.01202,-27.0963 -4.50243,-27.0963 -2.47635,0 -5.36859,2.25725 -6.42728,5.01609 -1.23789,3.22591 -0.61733,4.208 1.73887,2.75177 2.51274,-1.55296 3.0574,0.17118 1.73356,5.4884 -1.06163,4.26398 -2.74714,12.11612 -3.74554,17.44916 -1.44095,7.69663 -1.18634,8.36323 1.23443,3.23215 2.63117,-5.57709 3.08092,-5.02258 3.27691,4.04019 0.12489,5.77745 -1.22727,10.50449 -3.00498,10.50449 -1.77768,0 -4.323,0.0858 -5.65628,0.19082 -1.33328,0.10498 -3.36993,-3.16766 -4.52605,-7.27234 -1.17912,-4.18664 -2.24336,-5.20334 -2.42408,-2.31582 -0.17711,2.83103 -5.04923,7.71209 -10.82668,10.84684 -13.71361,7.44072 -28.26825,26.47415 -28.33081,37.04879 -0.0384,6.42199 -0.74872,7.26225 -3.0564,3.61331 -1.65378,-2.61502 -4.17453,-3.58696 -5.60168,-2.15986 -1.42714,1.42714 -0.0517,4.4543 3.05641,6.72704 7.86846,5.75356 7.0541,9.09806 -1.62115,6.65782 -5.69298,-1.60134 -6.21943,-1.3084 -2.42413,1.34878 4.17932,2.92606 4.06785,3.40123 -0.80806,3.4439 -3.11095,0.0258 -5.65622,1.58978 -5.65622,3.47239 0,1.88258 1.28964,2.62582 2.86587,1.65165 4.19454,-2.59234 11.03079,6.90491 8.23109,11.43494 -2.86198,4.63081 6.97835,12.57983 15.57305,12.57983 5.00308,0 5.86924,-2.079 5.03856,-12.09367 z m 29.91472,8.74783 c 3.43852,-1.84023 6.25184,-6.28948 6.25184,-9.88723 0,-3.59774 -1.30207,-5.73662 -2.89348,-4.75307 -1.59136,0.98353 -3.72743,-0.38509 -4.74676,-3.0414 -2.44144,-6.36232 -10.54043,-6.18636 -13.0229,0.28283 -6.46328,16.84288 0.26729,24.96848 14.4113,17.39876 z m 411.1361,-19.95675 c 5.17122,-6.01399 5.6316,-13.88867 4.84826,-82.93781 l -0.86555,-76.29293 -8.08039,-3.81614 c -5.03026,-2.37565 -52.6117,-5.73564 -126.05386,-8.90136 -64.8854,-2.7969 -126.53168,-5.91965 -136.99172,-6.93945 l -19.0183,-1.85422 -12.27878,13.94618 c -6.75338,7.67038 -17.37378,19.76403 -23.60095,26.87476 -7.37104,8.41693 -12.38583,11.80068 -14.3704,9.69645 -1.6766,-1.77769 -8.39492,-33.62752 -14.92969,-70.77741 -6.53476,-37.1499 -14.56858,-72.784347 -17.85294,-79.187674 -5.61566,-10.948685 -22.76134,-29.881924 -22.76134,-25.134414 0,1.198716 -3.27255,-1.093085 -7.27234,-5.092856 l -7.27233,-7.272337 -1.02402,8.901754 c -0.77634,6.748622 1.73351,11.502468 10.37645,19.653822 14.02344,13.225802 16.00436,18.309199 22.89292,58.748095 3.01604,17.70569 6.07998,33.1569 6.80874,34.33601 0.7287,1.17911 2.10542,8.35557 3.05929,15.94771 0.95391,7.59212 3.10521,19.73869 4.78067,26.99235 1.67545,7.25367 3.08182,17.82407 3.12527,23.48977 0.0765,9.97015 0.44501,10.24188 11.46465,8.45365 8.07086,-1.30972 13.10334,-0.29317 17.2856,3.49173 5.59034,5.05922 6.8934,4.04239 24.83196,-19.378 l 18.93198,-24.71739 55.09061,2.16236 c 30.29987,1.18927 64.54469,2.78081 76.09965,3.53672 11.55492,0.75591 45.7349,2.23783 75.95551,3.2932 30.22061,1.05536 57.49187,2.65975 60.60282,3.56527 5.04961,1.46982 5.65627,4.35289 5.65627,48.29478 0,68.81774 0.70571,60.14698 0,68.81774 0,17.93171 -3.98983,23.08073 -17.88458,23.08073 -12.56945,0 -13.9088,1.30556 -11.93452,11.63352 1.51305,7.91468 2.24844,8.16387 18.12217,6.13987 10.76498,-1.37258 18.54128,-4.43099 22.25889,-8.75448 z M 58.960678,338.81092 c 0,-8.18171 -5.323197,-11.65834 -17.850412,-11.65834 -4.193908,0 -8.730556,-1.78833 -10.081412,-3.97412 -3.161921,-5.11608 -1.529454,-129.34231 1.743629,-132.68526 2.663576,-2.72041 102.245027,-8.31841 160.389367,-9.0163 30.87821,-0.37064 37.15565,0.47815 47.15066,6.37535 l 11.5301,6.80293 3.47642,-7.62992 c 3.26724,-7.17085 2.33453,-8.17571 -15.50172,-16.70064 l -18.97818,-9.07073 -91.4437,3.98332 c -96.841155,4.21845 -101.151191,4.70824 -110.028588,12.50364 -5.081534,4.4622 -5.656263,12.58302 -5.656263,79.92051 0,81.82699 0.274942,83.05376 19.392902,86.53318 20.670914,3.76207 25.857197,2.68225 25.857197,-5.38362 z M 623.78399,328.1577 c -5.0359,-1.31631 -5.12061,-2.00762 -0.77832,-6.34993 5.41792,-5.41794 3.69224,-10.81593 -3.45772,-10.81593 -2.78092,0 -4.65749,3.17319 -4.65749,7.87558 0,6.46311 -1.88396,8.10938 -10.50452,9.17917 -6.0066,0.74544 -2.89271,1.36454 7.27238,1.44594 9.77725,0.0784 15.23382,-0.52239 12.12567,-1.33483 z m 12.32474,-0.66646 c -0.98355,-1.59138 0.72098,-3.85632 3.78781,-5.03319 3.06679,-1.17684 6.08857,-0.602 6.71506,1.2774 0.62648,1.87943 4.01259,3.41713 7.52477,3.41713 3.51213,0 5.48679,-1.45446 4.38811,-3.23215 -1.13207,-1.83172 1.57044,-3.23215 6.23732,-3.23215 6.85536,0 8.12038,-1.38385 7.55128,-8.26029 -0.59513,-7.19088 -1.17793,-7.58427 -4.50171,-3.03873 -2.45529,3.35776 -4.57377,3.99884 -5.93522,1.79599 -4.35913,-7.05326 -10.54337,-3.49103 -9.48382,5.46285 0.57844,4.88861 0.31253,6.5626 -0.59134,3.71994 -0.98698,-3.10467 -5.45767,-5.27691 -11.19642,-5.44007 -8.03989,-0.22858 -9.55336,0.97422 -9.55336,7.59255 0,4.32532 1.54032,7.86421 3.42291,7.86421 1.88259,0 2.61813,-1.30206 1.63461,-2.89349 z m -267.78341,-3.41835 c 2.15955,-0.0838 5.48693,-3.06824 7.39419,-6.63199 3.41148,-6.37436 2.57226,-6.47249 -51.72215,-6.04704 -30.35441,0.23789 -56.08621,-0.46393 -57.1818,-1.5595 -1.0956,-1.09562 -7.94968,-1.25942 -15.23131,-0.36401 -9.84071,1.21006 -11.57986,0.84291 -6.77496,-1.43024 4.46439,-2.1121 4.96437,-3.14217 1.61607,-3.32954 -2.66651,-0.14919 -8.3482,-1.20778 -12.62599,-2.35238 -5.4532,-1.45912 -7.08668,-0.96292 -5.46549,1.66022 1.49863,2.42478 -0.31386,3.72384 -5.15087,3.69178 -5.5754,-0.0369 -6.32251,-0.77171 -2.95376,-2.90479 3.60647,-2.28364 3.28289,-3.09674 -1.61607,-4.06106 -3.36894,-0.66316 32.57985,-0.64299 79.88628,0.0447 l 86.01165,1.25056 8.52872,-11.18174 c 10.67965,-14.00172 11.33108,-29.8912 1.55014,-37.81132 -7.22443,-5.84998 -5.93493,-13.16209 2.32111,-13.16209 3.27895,0 4.65748,-3.8266 4.65748,-12.92859 0,-12.07027 -0.61382,-12.9286 -9.24567,-12.9286 -9.19781,0 -9.24391,0.10188 -8.88845,19.642 0.41683,22.91476 -4.56907,28.84024 -24.26699,28.84024 -9.06694,0 -13.6777,-2.03589 -18.50272,-8.16991 -8.604,-10.93825 -53.34637,-33.79389 -61.81818,-31.57847 -3.60392,0.94244 -10.07313,-0.59324 -14.3761,-3.41263 -4.86125,-3.18522 -18.01938,-5.73159 -34.75131,-6.7251 -19.38586,-1.15106 -24.21201,-0.7566 -17.23134,1.40844 6.71226,2.08179 -1.7429,2.55392 -27.47327,1.53409 -43.90367,-1.74014 -107.044261,1.82428 -92.116282,5.20016 9.479692,2.14377 9.425492,2.20136 -2.424109,2.57523 -7.20069,0.22728 -12.212768,2.02236 -12.347747,4.42259 -0.124889,2.22208 -1.477168,1.13125 -3.004966,-2.42412 -1.527798,-3.55536 -2.880025,-4.64623 -3.004966,-2.42411 -0.124895,2.22209 -1.767498,4.04019 -3.650081,4.04019 -1.882587,0 -2.376638,-1.8181 -1.097899,-4.04019 1.278769,-2.22212 1.218107,-3.04523 -0.134712,-1.82919 -1.352929,1.21604 -2.879124,8.87205 -3.391588,17.01334 -0.512436,8.14129 -2.381501,16.6004 -4.153443,18.79798 -1.771942,2.1976 -3.015933,11.24963 -2.764418,20.11568 0.345787,12.1889 1.760592,16.37102 5.801529,17.14925 4.626733,0.89101 5.108708,-1.4529 3.590041,-17.45879 -1.560716,-16.44872 -1.211282,-17.98378 3.16802,-13.91709 2.707223,2.51399 3.912609,5.29811 2.678626,6.18696 -1.233982,0.88884 -1.653802,8.52478 -0.932929,16.96878 1.386673,16.24295 4.77735,18.56585 17.309817,11.85871 7.680626,-4.11057 12.829307,-0.83157 5.881377,3.74559 -3.224754,2.12443 0.965325,2.57326 13.0222,1.39492 13.20033,-1.29009 16.11266,-0.89639 11.31253,1.52922 -4.92999,2.49124 -3.20392,2.81815 7.27233,1.37739 8.9006,-1.22408 13.73664,-0.65127 13.73664,1.62709 0,6.07652 12.90763,3.98131 13.18378,-2.14002 0.1523,-3.37902 0.91152,-4.02966 1.88541,-1.61607 0.89665,2.22209 4.78161,4.06244 8.63325,4.08967 5.83814,0.0414 6.19658,0.62231 2.15476,3.49323 -3.59501,2.55356 -1.23595,2.9388 9.1263,1.49033 9.98867,-1.39623 13.32905,-0.90901 11.71151,1.70823 -1.6303,2.63782 1.58049,3.01224 11.48367,1.3391 9.65932,-1.63193 13.09499,-1.26801 11.55491,1.22387 -1.5304,2.47627 2.4911,2.99005 13.32761,1.70267 11.55301,-1.3725 14.28028,-0.95511 10.67115,1.63319 -3.60083,2.58236 -0.69028,2.99815 11.31253,1.61608 12.39988,-1.42779 15.03247,-1.01314 11.31249,1.78179 -4.2415,3.18677 34.75482,3.28244 112.20354,0.27522 z M 201.17527,301.0222 c 5.73709,-2.03131 2.45648,-2.4541 -11.31253,-1.45796 -13.71791,0.99243 -17.50124,0.50874 -12.92859,-1.65294 4.48066,-2.1182 1.13045,-2.45326 -10.91782,-1.09185 -13.02712,1.47197 -16.78515,0.99814 -14.9994,-1.89124 1.561,-2.52576 0.31024,-3.5933 -3.62686,-3.09555 -3.30527,0.41785 -8.63571,-0.37765 -11.84542,-1.76778 -3.2097,-1.39014 -12.66374,-1.6235 -21.00897,-0.51859 -10.93167,1.44735 -13.81788,1.07423 -10.32491,-1.3347 3.4687,-2.39223 0.34874,-2.72178 -10.964691,-1.15822 -10.718917,1.48141 -15.137578,1.0927 -13.716518,-1.20668 1.153049,-1.86565 0.269279,-4.25674 -1.963881,-5.31352 -5.474459,-2.59061 17.916662,-0.17196 80.7836,8.35347 37.70021,5.11249 52.52245,8.3245 52.52245,11.3817 0,2.56974 -3.52574,4.13141 -8.8884,3.93701 l -8.88846,-0.32218 z m 345.84003,16.43393 c 0,-5.15838 -2.1548,-6.46429 -10.66607,-6.46429 -5.86635,0 -12.41145,1.74536 -14.54468,3.87857 -3.01665,3.01668 -3.87859,3.01668 -3.87859,0 0,-2.27789 -4.66863,-3.87857 -11.31254,-3.87857 -9.15772,0 -11.31253,1.23129 -11.31253,6.46429 0,5.92562 2.15481,6.4643 25.85721,6.4643 23.7024,0 25.8572,-0.53868 25.8572,-6.4643 z m 23.60811,4.13922 c -7.37436,-0.92134 -9.81832,-2.62267 -8.54262,-5.94702 1.20725,-3.14592 -0.42234,-4.65649 -5.02324,-4.65649 -4.6553,0 -6.81011,2.04535 -6.81011,6.46429 0,5.62963 1.98235,6.39751 15.35274,5.94703 11.48722,-0.38701 12.75196,-0.8422 5.02323,-1.80781 z m 21.64198,-3.75821 c 0,-4.91264 -2.48787,-6.11761 -12.9286,-6.26171 -7.11073,-0.0983 -12.9286,1.04872 -12.9286,2.54854 0,1.49984 2.89124,1.97089 6.42505,1.0468 4.07525,-1.0657 7.15688,0.22703 8.42618,3.53473 2.76863,7.21496 11.00597,6.56504 11.00597,-0.86836 z m 18.65489,-0.49346 c 1.45257,-7.6325 -11.23437,-7.12544 -13.23602,0.52901 -1.34286,5.13501 -0.27378,6.22968 5.30503,5.43141 3.84279,-0.54985 7.41174,-3.23205 7.93099,-5.96042 z m 71.84529,3.3446 c -3.679,-2.37757 -2.31489,-3.14509 5.65627,-3.18266 5.77746,-0.0271 10.50453,-1.50396 10.50453,-3.28164 0,-1.77768 1.54027,-3.23214 3.42286,-3.23214 1.88264,0 2.58616,1.35395 1.56337,3.00881 -1.02278,1.65484 -0.37111,3.92872 1.44816,5.0531 1.81922,1.12432 4.14502,-0.13782 5.16843,-2.80473 1.0234,-2.66697 3.92209,-4.05801 6.44146,-3.09123 2.69013,1.03229 4.58074,-0.23039 4.58074,-3.05927 0,-4.61556 -9.14094,-8.72083 -19.39289,-8.70951 -4.02686,0.005 -4.08986,0.48563 -0.37215,2.84011 2.75995,1.74794 -1.57713,2.25451 -11.31253,1.3213 -11.70371,-1.12189 -14.53424,-0.62657 -10.94038,1.91449 3.28682,2.32392 3.54704,3.44387 0.80805,3.47743 -2.22211,0.0271 -4.04019,2.95843 -4.04019,6.51379 0,4.02056 2.13825,6.44558 5.65626,6.41481 4.83384,-0.0424 4.95133,-0.50507 0.80801,-3.18266 z m 71.1073,-16.16075 c 0,-8.50127 -1.09554,-9.65673 -8.8884,-9.37426 l -8.88841,0.32218 8.0804,2.81409 c 6.95349,2.42162 6.40299,2.69409 -3.94761,1.95371 -8.09966,-0.57938 -12.61086,0.65864 -13.8127,3.79064 -2.5576,6.66501 0.62449,8.55868 6.36965,3.79062 2.99469,-2.48539 4.92633,-2.75891 4.92633,-0.69758 0,2.93089 4.97955,5.36767 13.73666,6.72212 1.33323,0.20608 2.42408,-3.98847 2.42408,-9.32152 z m 22.08738,2.83144 c -3.22801,-2.04623 -3.29589,-2.74489 -0.27037,-2.78195 2.22212,-0.0271 4.0402,-2.95842 4.0402,-6.51378 0,-3.59129 -2.15476,-6.46431 -4.84821,-6.46431 -2.66651,0 -4.84821,1.61008 -4.84821,3.57797 0,1.96786 -2.06136,2.78694 -4.58073,1.82014 -4.44916,-1.70728 -9.71402,5.95579 -7.03969,10.24627 0.73103,1.17286 5.94808,2.29349 11.59339,2.49029 6.73583,0.23478 8.78239,-0.58145 5.95362,-2.37463 z m 29.62704,-9.29573 c 0,-7.96814 -1.29623,-9.65596 -7.27234,-9.46927 -6.93912,0.21668 -6.97612,0.35445 -0.80806,3.00496 5.68606,2.44338 5.3712,2.80515 -2.61485,3.00497 -5.27558,0.13188 -8.24228,-1.12688 -7.08156,-3.00497 1.09867,-1.77768 0.45729,-3.23214 -1.42535,-3.23214 -1.88259,0 -3.42291,3.63616 -3.42291,8.08037 0,4.4442 1.45447,8.08037 3.23219,8.08037 1.77767,0 3.23214,-1.55836 3.23214,-3.46302 0,-1.90465 2.28557,-1.17741 5.0791,1.61607 7.61708,7.61709 11.08164,6.17353 11.08164,-4.61734 z m -106.17066,1.7573 c 8.26931,-0.0776 14.50364,-1.00765 13.85415,-2.06661 -1.28656,-2.09769 88.3689,-15.9533 102.82098,-15.89023 l 8.88841,0.0388 0,-27.47328 0,-27.47327 -15.35268,-0.42548 c -15.03157,-0.41658 -15.1161,-0.47592 -4.0402,-2.83638 6.55084,-1.3961 -5.01328,-2.00595 -27.47328,-1.44883 -29.56704,0.73342 -34.56053,0.33245 -21.00895,-1.687 12.95313,-1.93026 5.93683,-2.38165 -25.85721,-1.66345 -29.82597,0.67374 -38.5199,0.17118 -27.47328,-1.58804 10.71536,-1.70644 -0.17559,-2.24572 -32.32148,-1.6004 -30.99248,0.62217 -42.06932,0.10187 -30.70542,-1.44211 l 17.77681,-2.4154 -25.8572,-0.47732 c -17.7227,-0.32718 -24.33198,0.50832 -21.00896,2.65581 2.91307,1.88259 3.31173,3.15293 0.99879,3.18267 -2.11719,0.0271 -4.74837,-1.40499 -5.84704,-3.18267 -1.09868,-1.77768 -5.9115,-3.23209 -10.69525,-3.23204 -10.9557,1e-4 -24.55666,16.21554 -27.70997,33.03652 -3.94239,21.03044 -25.02462,28.53448 -42.20312,15.02188 -7.95793,-6.25973 -8.66111,-8.5448 -7.7082,-25.04917 l 1.0485,-18.16111 -10.50448,-1.01283 c -10.24791,-0.98808 -10.50448,-0.70124 -10.50448,11.74359 0,10.03818 1.37744,13.11663 6.46428,14.44689 3.55539,0.92974 6.46433,4.14446 6.46433,7.14385 0,2.99938 -2.90894,6.2141 -6.46433,7.14385 -4.98832,1.30449 -6.46428,4.4087 -6.46428,13.59566 0,6.54787 1.74533,13.65056 3.87855,15.78378 3.01666,3.01668 3.01666,3.87858 0,3.87858 -2.13322,0 -3.87855,2.88057 -3.87855,6.40126 0,6.15365 2.71935,6.43963 70.29924,7.39293 38.66458,0.54541 80.48052,0.27373 92.92431,-0.60376 12.4438,-0.87749 29.39083,-1.659 37.66001,-1.73669 z m 142.69584,-23.04815 c -0.35446,-10.51105 -1.80115,-25.65613 -3.21487,-33.6557 -2.28771,-12.94484 -2.75004,-10.98949 -4.20375,17.77682 -1.76401,34.90792 -1.37558,38.16773 4.31915,36.25045 2.37537,-0.79974 3.50839,-8.24671 3.09947,-20.37157 z M 408.44887,250.3958 c -0.66012,-12.00307 -2.11459,-19.33855 -3.23219,-16.301 -2.5003,6.7955 -0.59442,38.10865 2.32006,38.11801 1.16172,0.005 1.57215,-9.81392 0.91213,-21.81701 z m 31.09744,19.58222 c -5.28577,-1.38131 -7.5629,-10.76846 -5.73192,-23.62918 0.81593,-5.73143 -0.96819,-4.14445 -5.79714,5.15654 -4.26175,8.20865 3.0619,20.91832 11.71229,20.32573 4.9454,-0.33881 4.92776,-0.51743 -0.18332,-1.85309 z m -15.089,-35.69022 c 9.61056,-2.51322 7.31298,-7.33186 -3.49587,-7.33186 -9.68973,0 -9.69623,0.0129 -9.3503,18.58486 l 0.34616,18.58486 3.14965,-14.10818 c 2.13323,-9.55503 5.15083,-14.6315 9.35036,-15.72968 z m 33.67387,12.06104 c -1.09867,-1.77769 -0.5431,-3.23215 1.23457,-3.23215 1.77768,0 4.14569,1.47817 5.2623,3.28487 2.97918,4.82046 8.07641,0.55052 5.95191,-4.98589 -0.9975,-2.5994 -3.27151,-3.82513 -5.05335,-2.72387 -2.00938,1.24187 -2.40762,-0.61962 -1.04854,-4.90157 2.03674,-6.41729 1.14046,-6.86405 -12.71867,-6.33985 -8.2004,0.31018 -15.65981,1.7775 -16.57654,3.26072 -0.91663,1.48322 4.34804,1.94105 11.69925,1.01741 11.56735,-1.45339 13.19764,-0.90891 12.11552,4.04639 -0.68772,3.14914 -3.2283,5.28004 -5.64574,4.7353 -3.61577,-0.81476 -3.6548,-0.0983 -0.22027,4.04019 4.64121,5.59234 8.11706,6.84267 4.99956,1.79845 z M 339.79107,227.84346 c 3.51854,-6.76484 2.40924,-7.85112 -18.64141,-18.25464 l -22.38259,-11.06173 -1.64429,8.55816 c -0.9044,4.70699 -1.40917,8.74775 -1.12173,8.97948 1.73669,1.40004 39.37582,19.86009 39.67868,19.46031 0.20377,-0.26879 2.05373,-3.7255 4.11134,-7.68158 z m 145.8134,-15.86137 c 0,-12.22053 -2.02242,-12.93145 -39.34049,-13.82895 l -27.74512,-0.66727 -1.59885,10.69485 c -0.87935,5.88217 -0.45084,11.42208 0.95225,12.31092 1.40305,0.88884 17.21678,1.61693 35.14163,1.61796 l 32.59058,0.002 0,-10.12943 z m -98.40708,-64.21382 c 7.33443,-37.33133 14.46765,-71.511315 15.85163,-75.955523 3.06508,-9.842642 10.35511,-18.598019 21.24218,-25.511923 6.49468,-4.124509 7.82525,-7.048779 6.46432,-14.207031 l -1.71368,-9.013509 -13.29853,8.643593 c -22.5173,14.635488 -28.48074,27.676824 -39.89507,87.245733 -5.62249,29.34241 -11.47376,60.91604 -13.00279,70.16361 -1.52908,9.24757 -3.69598,19.14322 -4.81533,21.99035 -1.5833,4.02737 -0.0517,5.10373 6.89837,4.84823 l 8.93357,-0.32839 z m 23.08882,12.9286 c 5.07138,-53.83453 6.9331,-60.2367 19.26785,-66.259073 6.77112,-3.305972 11.35356,-8.949665 14.40532,-17.741528 6.45071,-18.584216 14.67459,-18.835134 19.55268,-0.596552 2.99536,11.199322 6.07875,15.420043 13.74336,18.812532 7.91775,3.504529 10.29843,6.943201 11.97891,17.302371 2.65033,16.33767 5.77286,56.69535 5.93925,76.76356 l 0.12721,15.35271 11.53035,0 c 9.46053,0 11.23156,-1.01536 9.86599,-5.65626 -0.9154,-3.11096 -5.46588,-27.47328 -10.11226,-54.13851 -15.21945,-87.343805 -16.65148,-89.787959 -53.03879,-90.52393 -22.48177,-0.454725 -28.60933,1.923128 -38.37372,14.89121 -2.14143,2.844033 -8.86217,30.478913 -14.9349,61.41085 -6.07272,30.9319 -12.07799,60.3455 -13.34501,65.36355 -2.21765,8.78308 -1.89782,9.08478 8.56587,8.08038 l 10.86956,-1.04337 3.95823,-42.01794 z m 50.36658,31.57575 c -7.50149,-0.67787 -20.59169,-0.68594 -29.08935,-0.0181 -8.49761,0.66802 -2.36,1.22263 13.63914,1.23248 15.99914,0.0103 22.95174,-0.53672 15.45021,-1.21456 z m 13.63914,-7.33463 c -7.83679,-3.36759 -28.78355,-3.36759 -42.01795,0 -6.6514,1.69248 -0.56132,2.51609 19.39288,2.62257 18.95475,0.1011 26.83722,-0.81254 22.62507,-2.62257 z m 13.31144,-1.78394 c -1.10375,-2.87638 -0.56193,-4.17376 1.27024,-3.0414 1.75732,1.08608 3.19514,0.26475 3.19514,-1.82518 0,-2.16257 -2.68771,-3.09702 -6.23765,-2.1687 -3.43069,0.89717 -11.06665,0.48844 -16.96881,-0.90825 -10.25261,-2.42619 -10.01047,-2.57841 5.42964,-3.41362 l 16.16075,-0.87421 -19.39289,-2.14545 c -19.38956,-2.14508 -19.39023,-2.14555 -4.0402,-2.68881 l 15.35274,-0.54333 0.50772,-15.35272 0.50781,-15.35271 2.21661,16.16075 c 1.85774,13.5446 2.29426,14.32944 2.69625,4.84822 0.84007,-19.81098 -3.43264,-47.42179 -6.2311,-40.2663 -2.13427,5.45719 -2.50643,5.54981 -2.70227,0.67247 -0.12518,-3.11096 -1.76752,-5.65627 -3.65008,-5.65627 -1.88264,0 -2.50936,-1.47817 -1.39276,-3.28486 1.11661,-1.80668 3.60886,-2.30919 5.53836,-1.11667 2.11136,1.30485 2.57696,0.66137 1.1694,-1.61608 -1.28632,-2.08135 -3.59224,-3.0096 -5.12427,-2.06276 -1.53202,0.94684 -3.69907,0.24332 -4.81563,-1.56335 -3.13314,-5.069538 -35.06715,-3.965359 -42.24083,1.46057 -3.86959,2.9268 -4.6526,4.78482 -2.04306,4.84822 2.32699,0.0566 3.31733,1.58097 2.20077,3.38766 -1.11661,1.80667 -3.27701,2.51427 -4.80092,1.57243 -3.38705,-2.0933 -7.97898,31.82188 -5.26585,38.89228 1.1196,2.91762 0.58906,4.23044 -1.25017,3.0937 -1.75733,-1.08607 -3.19515,1.02007 -3.19515,4.68036 0,4.04055 2.22212,6.80234 5.65627,7.02998 5.05468,0.33506 5.02067,0.53868 -0.31965,1.91465 -12.5037,3.22155 10.98563,10.63902 33.6912,10.63902 15.35837,0 23.4032,1.44563 26.29577,4.72528 5.5319,6.2721 10.19636,6.24518 7.78262,-0.045 z"
       id="path3471"
       inkscape:connector-curvature="0"
       sodipodi:nodetypes="csssscscccssscssscsscccsssssssssssssscsssscssssssscsscccsssssscssssssscccsssssscscscssscscssscsccsssscsscsssssssssssssssccscccssssssscscscccssscssscsssssssssssccssssssscccssscccsccscccssssscsssssscsssscsscsscscsssscssscscsssccssssscsscccsscscscsccscccsssssscssssscsccssscsssccscscsssssssccsssssssccccscscssccccsssssssccscssssscccscscssssscssssssscsssssssccscssssscsssscccssssccsscssscssssssscssscsssssscssssscccsssscssscsscsssssscsssssccsssssssscsssccsscssssssssscssssssssssssssccscsscsssssssssssssscccsssssssssccsssssssssscsssscsssssssssssssssssssssssssssssssssscssccscssscssssscssssssccssscscsssssssccscccsssssssscsscssssscsssssssssssccssssssscscsssccssscssssssscscssssssscsccscscscscccsssscssscscscsssssscssssssssccccccccsssscssssscsscccssscssccssscccscssssscc" />
  </g>
</svg>
